<svg id="svg" version="1.1" viewBox="10,20,175,160" xmlns="http://www.w3.org/2000/svg" xmlns:svg="http://www.w3.org/2000/svg">
  <g id="g1">
    <path id="ray-logo" d="m 101.476,36.871 c -1.303,0.145 -3.55,0.666 -4.332,1.004 -2.044,0.884 -2.472,1.092 -3.144,1.529 -7.177,4.661 -9.961,13.497 -6.746,21.409 0.465,1.144 0.582,1.352 1.707,3.057 0.986,1.494 3.928,4.463 4.424,4.463 0.054,0 0.429,0.223 0.832,0.496 4.639,3.13 12.64,3.283 17.395,0.332 0.457,-0.284 22.892,21.99 22.486,22.327 -0.218,0.181 -0.803,1.491 -1.437,3.22 l -0.352,0.959 h -6.238 c -5.795,0 -6.238,-0.021 -6.238,-0.288 0,-0.977 -1.759,-4.418 -3.151,-6.165 -4.027,-5.051 -11.482,-7.68 -17.226,-6.075 -0.711,0.198 -1.405,0.361 -1.542,0.361 -0.745,0 -4.681,2.22 -5.914,3.336 -0.321,0.291 -0.792,0.706 -1.046,0.923 -0.855,0.728 -2.606,3.23 -3.29,4.701 -0.372,0.801 -0.749,1.587 -0.837,1.746 -0.088,0.159 -0.16,0.434 -0.16,0.611 0,0.888 0.287,0.85 -6.415,0.85 H 74.04 l -0.198,-0.542 c -0.108,-0.298 -0.347,-0.917 -0.531,-1.375 -0.183,-0.458 -0.358,-0.946 -0.389,-1.083 -0.087,-0.39 -1.399,-2.503 -2.064,-3.324 -2.725,-3.366 -5.769,-5.225 -10.441,-6.377 -3.309,-0.816 -10.96,0.695 -12.419,2.453 -0.113,0.136 -0.278,0.248 -0.367,0.248 -0.392,0 -4.298,3.657 -4.298,4.024 0,0.086 -0.131,0.297 -0.291,0.469 -2.793,2.998 -3.936,11.297 -2.141,15.549 0.844,1.999 1.072,2.472 1.583,3.291 0.314,0.504 0.634,0.942 0.711,0.972 0.076,0.031 0.138,0.154 0.138,0.274 0,0.246 2.689,3.043 3.334,3.468 0.229,0.151 0.716,0.486 1.083,0.744 6.843,4.811 18.162,3.018 23.001,-3.643 0.093,-0.128 0.412,-0.542 0.709,-0.922 0.297,-0.38 0.54,-0.747 0.54,-0.815 0,-0.069 0.224,-0.489 0.498,-0.935 0.275,-0.445 0.461,-0.81 0.414,-0.81 -0.046,0 0.104,-0.372 0.335,-0.827 0.231,-0.456 0.42,-0.94 0.42,-1.076 0,-0.136 0.087,-0.439 0.193,-0.672 l 0.194,-0.425 h 6.22 6.22 l 0.101,0.459 c 1.063,4.828 6.623,10.565 11.322,11.682 0.366,0.087 1.154,0.288 1.75,0.446 7.975,2.118 18.533,-4.211 20.101,-12.05 l 0.107,-0.537 h 6.217 6.217 l 0.352,0.959 c 0.642,1.751 1.22,3.04 1.447,3.228 0.178,0.148 -2.094,2.503 -10.941,11.344 l -11.165,11.158 -0.793,-0.404 c -1.29,-0.658 -1.561,-0.769 -2.959,-1.21 -5.239,-1.651 -12.178,-0.296 -16.032,3.131 -1.412,1.256 -2.907,2.908 -3.508,3.878 -4.539,7.323 -3.445,16.326 2.69,22.138 0.992,0.939 3.39,2.578 4.35,2.972 1.875,0.771 2.482,1.005 2.729,1.053 0.149,0.03 0.849,0.174 1.556,0.32 10.388,2.155 20.37,-6.164 20.38,-16.983 0.002,-3.118 -0.379,-4.767 -1.788,-7.728 l -0.505,-1.061 11.107,-11.106 11.107,-11.105 0.873,0.447 c 1.444,0.739 3.341,1.372 5.068,1.691 1.606,0.297 5.042,0.225 6.39,-0.134 0.595,-0.159 1.37,-0.358 1.72,-0.442 1.198,-0.288 4.129,-1.822 5.32,-2.786 9.711,-7.857 8.716,-22.425 -1.957,-28.665 -3.504,-2.048 -8.663,-2.872 -12.167,-1.942 -0.55,0.146 -1.262,0.327 -1.583,0.403 -0.614,0.144 -1.774,0.627 -2.958,1.232 l -0.709,0.362 -11.105,-11.105 -11.105,-11.106 0.289,-0.561 c 3.009,-5.83 2.687,-12.491 -0.861,-17.825 -0.257,-0.386 -0.543,-0.821 -0.634,-0.965 -1.398,-2.203 -6.344,-5.524 -9.084,-6.099 -3.096,-0.651 -4.424,-0.766 -6.357,-0.551 m 4.095,8.912 c 6.101,1.712 8.316,9.521 3.993,14.078 -6.028,6.355 -16.205,1.325 -14.858,-7.345 0.559,-3.597 3.168,-6.047 7.544,-7.084 0.546,-0.13 2.249,0.05 3.321,0.351 M 59.946,91.812 c 2.314,0.806 4.061,2.37 5.152,4.615 l 0.644,1.323 v 2.25 2.25 l -0.648,1.332 c -3.748,7.711 -14.726,6.286 -16.362,-2.124 -1.223,-6.284 5.142,-11.76 11.214,-9.646 M 105,91.512 c 7.468,1.695 9.27,11.549 2.87,15.694 -7.325,4.746 -16.184,-3.082 -12.434,-10.986 0.56,-1.179 2.473,-3.387 2.935,-3.387 0.102,0 0.312,-0.113 0.465,-0.252 1.043,-0.944 4.259,-1.502 6.164,-1.069 m 46.441,0.171 c 4.417,1.35 7.025,5.54 6.148,9.877 -0.306,1.514 -0.863,2.879 -1.336,3.271 -0.139,0.116 -0.253,0.306 -0.253,0.424 0,0.307 -1.541,1.65 -2.554,2.224 -7.406,4.199 -15.743,-3.631 -12.051,-11.318 0.752,-1.565 3.286,-3.994 4.167,-3.994 0.112,0 0.276,-0.069 0.363,-0.153 0.713,-0.687 3.754,-0.87 5.516,-0.331 m -44.774,46.358 c 8.432,4.162 5.806,16.556 -3.5,16.523 C 100.595,154.555 96,152.103 96,150.74 c 0,-0.11 -0.106,-0.287 -0.236,-0.395 -1.065,-0.884 -1.517,-5.232 -0.754,-7.262 1.796,-4.781 7.334,-7.176 11.657,-5.042"></path>
  </g>
</svg>